<svg width="60" height="60" viewBox="0 0 60 60" fill="none" xmlns="http://www.w3.org/2000/svg">
<rect width="60" height="60" fill="white"/>
<path fill-rule="evenodd" clip-rule="evenodd" d="M29.5 17.3846C22.2566 17.3846 16.3846 23.2566 16.3846 30.5C16.3846 33.683 17.5185 36.6012 19.4044 38.8727C21.7056 36.5194 24.7974 34.579 29.5 34.579C34.2004 34.579 37.2924 36.504 39.5968 38.871C41.4821 36.5998 42.6154 33.6823 42.6154 30.5C42.6154 23.2566 36.7434 17.3846 29.5 17.3846ZM37.9142 40.5608C35.9373 38.5189 33.4154 36.9635 29.5 36.9635C25.5891 36.9635 23.0661 38.5286 21.0873 40.5622C23.3644 42.468 26.2982 43.6154 29.5 43.6154C32.7024 43.6154 35.6369 42.4676 37.9142 40.5608ZM14 30.5C14 21.9396 20.9396 15 29.5 15C38.0604 15 45 21.9396 45 30.5C45 39.0604 38.0604 46 29.5 46C20.9396 46 14 39.0604 14 30.5ZM29.5 23.4088C27.2472 23.4088 25.421 25.235 25.421 27.4878C25.421 29.7405 27.2472 31.5667 29.5 31.5667C31.7527 31.5667 33.579 29.7405 33.579 27.4878C33.579 25.235 31.7527 23.4088 29.5 23.4088ZM23.0364 27.4878C23.0364 23.9181 25.9303 21.0242 29.5 21.0242C33.0698 21.0242 35.9635 23.9181 35.9635 27.4878C35.9635 31.0576 33.0698 33.9513 29.5 33.9513C25.9303 33.9513 23.0364 31.0576 23.0364 27.4878Z" fill="black"/>
</svg>
